<?xml version="1.0" encoding="UTF-8" standalone="no"?>
<!DOCTYPE svg PUBLIC "-//W3C//DTD SVG 1.1//EN" "http://www.w3.org/Graphics/SVG/1.1/DTD/svg11.dtd">
<svg width="100%" height="100%" viewBox="0 0 236 186" version="1.1" xmlns="http://www.w3.org/2000/svg" xmlns:xlink="http://www.w3.org/1999/xlink" xml:space="preserve" xmlns:serif="http://www.serif.com/" style="fill-rule:evenodd;clip-rule:evenodd;stroke-linecap:round;stroke-linejoin:round;stroke-miterlimit:1.5;">
    <g transform="matrix(1,0,0,1,-666,-534)">
        <g id="Waves">
        </g>
        <g id="wind">
        </g>
        <g id="sun">
        </g>
        <g id="Waves1" serif:id="Waves">
        </g>
        <g id="wind1" serif:id="wind">
        </g>
        <g id="sun1" serif:id="sun">
        </g>
        <g id="stop-sign" serif:id="stop sign">
        </g>
        <g id="Panel-wire" serif:id="Panel wire">
        </g>
        <g id="Panel-wire1" serif:id="Panel wire">
        </g>
        <g id="Panel-wire2" serif:id="Panel wire" transform="matrix(1,0,0,1,373.492,305.756)">
            <g transform="matrix(0.833333,0,0,0.489329,-44.3333,52.3902)">
                <path d="M592,512L496,512L448,640L640,640L592,512Z" style="fill:none;stroke:black;stroke-width:2.93px;"/>
            </g>
            <g transform="matrix(0.833333,0,0,0.489329,-44.3333,52.3902)">
                <path d="M528,512.366L512,640" style="fill:none;stroke:black;stroke-width:2.93px;"/>
            </g>
            <g transform="matrix(0.833333,0,0,0.489329,-44.3333,52.3902)">
                <path d="M560,512.366L576,640" style="fill:none;stroke:black;stroke-width:2.93px;"/>
            </g>
            <g transform="matrix(0.833333,0,0,0.490732,-44.3333,51.6719)">
                <path d="M472,576L616,576" style="fill:none;stroke:black;stroke-width:2.92px;"/>
            </g>
        </g>
        <g id="Panel-wire3" serif:id="Panel wire">
        </g>
        <g id="Panel-wire4" serif:id="Panel wire">
        </g>
        <g id="bird">
        </g>
        <g transform="matrix(1.58656,0,0,1.58656,-320.447,-32.1351)">
            <g id="bird-with-laser" serif:id="bird with laser">
                <g id="bird1" serif:id="bird">
                </g>
            </g>
        </g>
        <g transform="matrix(0.795074,0,0,0.795074,-555.561,-95.5795)">
            <g id="bird-with-laser1" serif:id="bird with laser">
                <g id="bird2" serif:id="bird">
                </g>
            </g>
        </g>
        <g id="bird3" serif:id="bird">
        </g>
        <g id="bird4" serif:id="bird">
        </g>
        <path d="M702.492,671.316L702.492,687L862.492,687L862.492,672" style="fill:rgb(8,8,8);stroke:black;stroke-width:2px;"/>
        <path d="M702.492,687L707.856,704L717.999,687L720.381,699L736,687L747,704L758,692.169L768,704L774,692.169L780.656,699L785,687L796,704L805,687L811,699L819,687L832,704L838,692.169L847,687L847,695L855,687L859,699L862.492,687" style="stroke:black;stroke-width:2px;"/>
        <g transform="matrix(1,0,0,1,21.2951,15)">
            <text x="737.572px" y="572.137px" style="font-family:'ArialMT', 'Arial', sans-serif;font-size:26px;">F</text>
        </g>
        <g transform="matrix(1,0,0,1,21.2951,15)">
            <path d="M768,544L768,572.137L759,572.137L772,585L784,572.137L775,572.137L775,544L768,544Z" style="fill:none;stroke:black;stroke-width:2px;"/>
        </g>
        <g id="clock-with-arrows" serif:id="clock with arrows">
        </g>
        <g id="clock-with-arrows1" serif:id="clock with arrows">
        </g>
    </g>
</svg>
