<?xml version="1.0" encoding="UTF-8" standalone="no"?>
<!DOCTYPE svg PUBLIC "-//W3C//DTD SVG 1.1//EN" "http://www.w3.org/Graphics/SVG/1.1/DTD/svg11.dtd">
<svg width="100%" height="100%" viewBox="0 0 110 102" version="1.1" xmlns="http://www.w3.org/2000/svg" xmlns:xlink="http://www.w3.org/1999/xlink" xml:space="preserve" xmlns:serif="http://www.serif.com/" style="fill-rule:evenodd;clip-rule:evenodd;stroke-linecap:round;stroke-linejoin:round;stroke-miterlimit:1.5;">
    <g transform="matrix(1,0,0,1,-170,-188)">
        <g id="Waves">
        </g>
        <g id="wind">
        </g>
        <g id="sun">
            <g transform="matrix(1,0,0,1,7.49286,-6.25912)">
                <circle cx="212.562" cy="246.204" r="25.055" style="fill:none;stroke:black;stroke-width:2px;"/>
            </g>
            <path d="M220,200L220,210" style="fill:none;stroke:black;stroke-width:2px;"/>
            <g transform="matrix(-1,-1.22465e-16,1.22465e-16,-1,440,480)">
                <path d="M220,200L220,210" style="fill:none;stroke:black;stroke-width:2px;"/>
            </g>
            <g transform="matrix(-1.83697e-16,1,-1,-1.83697e-16,460,20)">
                <path d="M220,200L220,210" style="fill:none;stroke:black;stroke-width:2px;"/>
            </g>
            <g transform="matrix(0.707107,0.707107,-0.707107,0.707107,234.142,-85.2691)">
                <path d="M220,200L220,210" style="fill:none;stroke:black;stroke-width:2px;"/>
            </g>
            <g transform="matrix(0.707107,-0.707107,0.707107,0.707107,-105.269,225.858)">
                <path d="M220,200L220,210" style="fill:none;stroke:black;stroke-width:2px;"/>
            </g>
            <g transform="matrix(-1.11022e-16,-1,1,-1.11022e-16,-20,460)">
                <path d="M220,200L220,210" style="fill:none;stroke:black;stroke-width:2px;"/>
            </g>
            <g transform="matrix(-0.707107,-0.707107,0.707107,-0.707107,205.858,565.269)">
                <path d="M220,200L220,210" style="fill:none;stroke:black;stroke-width:2px;"/>
            </g>
            <g transform="matrix(-0.707107,0.707107,-0.707107,-0.707107,545.269,254.142)">
                <path d="M220,200L220,210" style="fill:none;stroke:black;stroke-width:2px;"/>
            </g>
        </g>
        <g id="Waves1" serif:id="Waves">
        </g>
        <g id="wind1" serif:id="wind">
        </g>
        <g id="sun1" serif:id="sun">
        </g>
        <g id="stop-sign" serif:id="stop sign">
        </g>
        <g id="Panel-wire" serif:id="Panel wire">
        </g>
        <g id="Panel-wire1" serif:id="Panel wire">
        </g>
        <g id="Panel-wire2" serif:id="Panel wire">
        </g>
        <g id="Panel-wire3" serif:id="Panel wire">
        </g>
        <g id="Panel-wire4" serif:id="Panel wire">
        </g>
        <g id="bird">
        </g>
        <g transform="matrix(1.58656,0,0,1.58656,-320.447,-32.1351)">
            <g id="bird-with-laser" serif:id="bird with laser">
                <g id="bird1" serif:id="bird">
                </g>
            </g>
        </g>
        <g transform="matrix(0.795074,0,0,0.795074,-555.561,-95.5795)">
            <g id="bird-with-laser1" serif:id="bird with laser">
                <g id="bird2" serif:id="bird">
                </g>
            </g>
        </g>
        <g id="bird3" serif:id="bird">
        </g>
        <g id="bird4" serif:id="bird">
        </g>
        <g id="clock-with-arrows" serif:id="clock with arrows">
        </g>
        <g id="clock-with-arrows1" serif:id="clock with arrows">
        </g>
    </g>
</svg>
