<?xml version="1.0" encoding="UTF-8" standalone="no"?>
<!DOCTYPE svg PUBLIC "-//W3C//DTD SVG 1.1//EN" "http://www.w3.org/Graphics/SVG/1.1/DTD/svg11.dtd">
<svg width="100%" height="100%" viewBox="0 0 95 99" version="1.1" xmlns="http://www.w3.org/2000/svg" xmlns:xlink="http://www.w3.org/1999/xlink" xml:space="preserve" xmlns:serif="http://www.serif.com/" style="fill-rule:evenodd;clip-rule:evenodd;stroke-linecap:round;stroke-linejoin:round;stroke-miterlimit:1.5;">
    <g transform="matrix(1,0,0,1,-314,-89)">
        <g id="Waves">
        </g>
        <g id="wind" transform="matrix(1,0,0,1,56.0625,-21.0207)">
            <g transform="matrix(1.12614,0,0,1.47077,-165.071,-63.7991)">
                <path d="M389.201,146.327C396.045,146.451 389.545,146.478 408.269,146.447C423.574,146.422 416.185,146.236 422.531,146.214C423.843,146.21 429.722,145.367 428.216,139.431C427.685,137.337 424.723,133.623 419.453,137.667" style="fill:none;stroke:black;stroke-width:1.53px;"/>
            </g>
            <g transform="matrix(1.12614,0,0,-1.47077,-167.936,382.914)">
                <path d="M386.546,146.327C393.39,146.451 394.238,146.478 412.962,146.447C428.266,146.422 423.532,146.236 429.878,146.214C431.19,146.21 437.069,145.367 435.563,139.431C435.032,137.337 432.07,133.623 426.8,137.667" style="fill:none;stroke:black;stroke-width:1.53px;"/>
            </g>
            <g transform="matrix(1.12614,0,0,1.47077,-165.886,-55.7751)">
                <path d="M393.624,146.327C400.468,146.451 393.968,146.478 412.692,146.447C427.997,146.422 433.058,146.211 439.404,146.19C440.716,146.185 449.892,145.386 446.731,135.688C446.343,134.499 444.121,131.564 441.08,131.164C438.865,130.873 435.769,131.722 434.785,134.198" style="fill:none;stroke:black;stroke-width:1.53px;"/>
            </g>
        </g>
        <g id="sun">
        </g>
        <g id="Waves1" serif:id="Waves">
        </g>
        <g id="wind1" serif:id="wind">
        </g>
        <g id="sun1" serif:id="sun">
        </g>
        <g id="stop-sign" serif:id="stop sign">
        </g>
        <g id="Panel-wire" serif:id="Panel wire">
        </g>
        <g id="Panel-wire1" serif:id="Panel wire">
        </g>
        <g id="Panel-wire2" serif:id="Panel wire">
        </g>
        <g id="Panel-wire3" serif:id="Panel wire">
        </g>
        <g id="Panel-wire4" serif:id="Panel wire">
        </g>
        <g id="bird">
        </g>
        <g transform="matrix(1.58656,0,0,1.58656,-320.447,-32.1351)">
            <g id="bird-with-laser" serif:id="bird with laser">
                <g id="bird1" serif:id="bird">
                </g>
            </g>
        </g>
        <g transform="matrix(0.795074,0,0,0.795074,-555.561,-95.5795)">
            <g id="bird-with-laser1" serif:id="bird with laser">
                <g id="bird2" serif:id="bird">
                </g>
            </g>
        </g>
        <g id="bird3" serif:id="bird">
        </g>
        <g id="bird4" serif:id="bird">
        </g>
        <g id="clock-with-arrows" serif:id="clock with arrows">
        </g>
        <g id="clock-with-arrows1" serif:id="clock with arrows">
        </g>
    </g>
</svg>
